<svg width="49" height="37" viewBox="0 0 49 37" fill="none" xmlns="http://www.w3.org/2000/svg">
<path d="M23.7999 3.63429V31.2974C17.6691 28.6212 12.5184 28.6982 6.3993 31.3735V0.932154C8.14289 0.545002 9.7577 0.298897 11.2184 0.246588C15.6935 0.0971723 20.4803 1.9919 23.8006 3.63552L23.7999 3.63429ZM38.2186 0.264638C39.8459 0.281799 41.6218 0.491488 43.6002 0.93096C43.5893 11.4359 43.6006 22.3335 43.6002 31.3723C37.4812 28.697 32.3306 28.62 26.1996 31.2962V3.65238C30.4612 1.87064 33.3249 0.255944 38.2193 0.263444L38.2186 0.264638ZM3.99815 3.57696V35.1037C11.7236 31.4364 18.3236 31.4364 23.7988 33.9234V36.189H0.998047V3.84365C2.03938 3.21039 2.9464 3.22086 3.99815 3.57704V3.57696ZM48.9997 3.84358V36.1889H26.1989V33.9233C31.524 31.4364 39.2954 31.7741 45.9996 35.1037V3.57689C47.0174 3.1642 48.1262 3.24917 48.9997 3.8435V3.84358Z" fill="white"/>
</svg>
