<svg width="48" height="46" viewBox="0 0 48 46" fill="none" xmlns="http://www.w3.org/2000/svg">
<path d="M47.1875 20.79L45.6338 14.6223C45.1688 12.7536 43.8783 11.1902 42.1193 10.3651C40.3602 9.54 38.3192 9.54 36.56 10.3651C34.801 11.1902 33.5105 12.7537 33.0455 14.6223L31.4918 20.79C31.3685 21.2703 31.3057 21.7636 31.3044 22.259C31.2981 24.0878 31.9797 25.8541 33.2172 27.2138C34.4548 28.5737 36.1596 29.4308 38.0003 29.6178V37.5589C38.0003 39.4502 36.9793 41.1979 35.322 42.1436C33.6647 43.0893 31.6227 43.0893 29.965 42.1436C28.3077 41.198 27.2867 39.4502 27.2867 37.5589V12.4117C27.2867 10.3059 26.4402 8.28603 24.9331 6.79662C23.4265 5.30721 21.3827 4.47055 19.2515 4.47055H11.2162V3.14734H12.5556C13.295 3.14734 13.8945 2.55441 13.8945 1.82367C13.8945 1.09293 13.295 0.5 12.5556 0.5H7.19855C6.45915 0.5 5.85919 1.09293 5.85919 1.82367C5.85919 2.55441 6.45915 3.14734 7.19855 3.14734H8.53792V4.47101L5.49783 4.47056C5.10189 3.79299 4.42302 3.3233 3.64329 3.18728C2.86352 3.05168 2.06309 3.2635 1.45643 3.76647C0.8502 4.26944 0.5 5.01175 0.5 5.79429C0.5 6.57683 0.8502 7.3191 1.45643 7.82211C2.06311 8.32508 2.86352 8.5369 3.64329 8.4013C4.42305 8.26526 5.10192 7.79553 5.49783 7.11801H8.53792V8.44168L5.85919 8.44124C5.11978 8.44124 4.52028 9.03417 4.52028 9.76491V12.7561C2.00478 14.487 0.504478 17.324 0.502641 20.3529V44.1762C0.502641 44.5272 0.643442 44.864 0.894544 45.1121C1.14609 45.3603 1.48642 45.4999 1.84156 45.4999H17.9121C18.2672 45.4999 18.608 45.3603 18.8591 45.1121C19.1102 44.864 19.2515 44.5272 19.2515 44.1762V20.3529C19.2497 17.324 17.7493 14.487 15.2338 12.7561V9.76491C15.2338 9.41394 15.0926 9.07715 14.8415 8.82899C14.5904 8.58083 14.2496 8.44124 13.8945 8.44124H11.2162V7.11803H19.2515C20.672 7.11803 22.0347 7.6755 23.0395 8.66858C24.0439 9.66122 24.6085 11.0079 24.6085 12.4118V37.559C24.6085 40.396 26.1398 43.0176 28.6261 44.4361C31.112 45.8546 34.1751 45.8546 36.6614 44.4361C39.1473 43.0176 40.679 40.396 40.679 37.559V29.6179C42.513 29.4313 44.2119 28.5805 45.4487 27.2289C46.6853 25.8773 47.3714 24.1211 47.3749 22.2989C47.3772 21.7902 47.314 21.2832 47.1875 20.79L47.1875 20.79ZM40.679 26.9709V26.6797C41.3646 26.2884 41.8399 25.6175 41.9775 24.8469C42.1147 24.0763 41.9004 23.2853 41.3914 22.6857C40.8825 22.0861 40.1314 21.74 39.3396 21.74C38.5478 21.74 37.7967 22.0861 37.2877 22.6857C36.7788 23.2853 36.5644 24.0763 36.7017 24.8469C36.8393 25.6176 37.3146 26.2885 38.0002 26.6797V26.9709C36.8801 26.7972 35.8596 26.2335 35.1228 25.3818C34.3861 24.5296 33.9817 23.4457 33.9826 22.325C33.9844 22.0485 34.0207 21.7728 34.0897 21.5047L35.6434 15.3238C35.9268 14.2355 36.6864 13.3293 37.715 12.8511C38.7441 12.3725 39.935 12.3725 40.9641 12.8511C41.9928 13.3292 42.7523 14.2354 43.0357 15.3238L44.5894 21.5047C44.6585 21.7728 44.6948 22.0485 44.6966 22.325C44.6975 23.4457 44.293 24.5297 43.5563 25.3818C42.8196 26.2335 41.799 26.7972 40.679 26.9709Z" fill="white"/>
</svg>
