<svg width="46" height="38" viewBox="0 0 46 38" fill="none" xmlns="http://www.w3.org/2000/svg">
<path fill-rule="evenodd" clip-rule="evenodd" d="M13.5848 20.6571H20.2498V13.9921H25.7499V20.6571H32.4149V26.1572H25.7496V32.8222H20.2495V26.1572H13.5848V20.6571ZM10.3022 8.95283H5.66929C2.94984 8.95283 0.724609 11.1777 0.724609 13.8975V32.9167C0.724609 35.6361 2.94949 37.8616 5.66929 37.8616H40.3304C43.0499 37.8616 45.2754 35.6367 45.2754 32.9167V13.8984C45.2754 11.1789 43.0505 8.95369 40.3304 8.95369H35.6975V3.45357C35.6975 2.57063 35.3376 1.76911 34.758 1.18951C34.1784 0.60994 33.3769 0.25 32.4939 0.25L13.5056 0.250335C12.6227 0.250335 11.8212 0.610266 11.2416 1.18985C10.6617 1.76976 10.3021 2.57131 10.3021 3.45391V8.95334L10.3022 8.95283ZM31.9837 8.95283H14.0162V3.96297H31.9837V8.95283Z" fill="white"/>
</svg>
