<svg width="43" height="42" viewBox="0 0 43 42" fill="none" xmlns="http://www.w3.org/2000/svg">
<path d="M28.0387 1.86495L28.0349 1.86112C28.0349 1.86112 28.0295 1.85844 28.0207 1.85461C27.9093 1.79299 27.7953 1.73902 27.6782 1.69348C26.6566 1.22233 23.7083 -0.0644047 22.5636 0.225718C22.2735 1.37093 23.5599 4.31841 24.0314 5.34025C24.0769 5.45699 24.1305 5.57143 24.1925 5.68281C24.1967 5.69161 24.199 5.69697 24.199 5.69697L24.2028 5.7008C24.3265 5.91973 24.4784 6.12641 24.6644 6.31242C25.7651 7.41314 27.5495 7.41314 28.6503 6.31242C29.7511 5.21169 29.751 3.42735 28.6503 2.32653C28.4647 2.13976 28.2576 1.98781 28.0387 1.86495L28.0387 1.86495ZM28.3992 6.06051L24.4245 2.0858C24.4245 2.0858 27.0528 3.94519 28.3992 6.06051Z" fill="white"/>
<path d="M33.1368 3.37629C32.3346 4.17851 32.3346 5.47907 33.1368 6.28056C33.939 7.08205 35.2396 7.08278 36.0411 6.28056C36.1766 6.14507 36.2876 5.99426 36.3775 5.83504L36.3802 5.83236C36.3802 5.83236 36.3817 5.82854 36.3852 5.82203C36.4303 5.74089 36.4698 5.65783 36.5027 5.57248C36.846 4.82805 37.7837 2.67977 37.572 1.84536C36.7373 1.6341 34.5897 2.57143 33.8449 2.91473C33.76 2.94765 33.6765 2.98707 33.5954 3.03223C33.5889 3.03568 33.585 3.03721 33.585 3.03721L33.5824 3.03989C33.4235 3.12983 33.2731 3.24083 33.1369 3.37632L33.1368 3.37629ZM36.2168 3.20137L33.3202 6.0979C34.3012 4.55587 36.2168 3.20137 36.2168 3.20137Z" fill="white"/>
<path d="M20.2745 19.0934C18.8638 19.0934 17.5168 19.3629 16.278 19.8486L16.0962 17.3531L17.306 15.116L16.3013 14.2483L14.8856 17.3527L15.5814 19.8394C14.3486 19.3595 13.009 19.0931 11.6067 19.0931C5.55135 19.0931 0.642578 24.0017 0.642578 30.0572C0.642578 36.1126 5.55126 41.0213 11.6067 41.0213C13.1465 41.0213 14.6108 40.7025 15.9404 40.1295C17.27 40.7025 18.7345 41.0213 20.2742 41.0213C26.3295 41.0213 31.2383 36.1126 31.2383 30.0572C31.2383 24.0022 26.3296 19.094 20.2751 19.094L20.2745 19.0934Z" fill="white"/>
<path d="M41.988 27.9451L41.9876 27.9417C41.9 27.3599 41.7764 26.7904 41.6015 26.2423L38.5598 12.8678H38.556C37.8464 9.65246 35.1182 7.19489 31.7669 6.90016L31.5584 4.04106L32.8203 1.70753L31.7723 0.802734L30.2958 4.04112L31.0877 6.87073C27.4306 6.87073 24.3771 9.43814 23.6204 12.8679H23.6166L22.2471 18.8795C27.5722 19.8176 31.6346 24.4667 31.6346 30.0563C31.6346 34.054 29.554 37.5691 26.4243 39.5942C27.8428 40.2575 29.4192 40.6391 31.0884 40.6391C37.184 40.6391 42.1251 35.6975 42.1251 29.6024C42.1255 29.0375 42.0696 28.4871 41.9877 27.9456L41.988 27.9451Z" fill="white"/>
<path d="M10.1234 16.8539C10.1268 16.8612 10.1288 16.8654 10.1288 16.8654L10.1314 16.8681C10.2325 17.0476 10.3576 17.2175 10.5107 17.3706C11.4152 18.2751 12.881 18.2751 13.7847 17.3706C14.6891 16.4662 14.6891 15.0004 13.7847 14.0959C13.6316 13.9428 13.4617 13.8184 13.2821 13.7166L13.2795 13.7139C13.2795 13.7139 13.2753 13.7116 13.268 13.7086C13.1765 13.658 13.0831 13.6136 12.9867 13.5765C12.1473 13.1892 9.72575 12.1325 8.78454 12.3705C8.54647 13.3109 9.60323 15.7324 9.9906 16.5726C10.0285 16.6683 10.0729 16.762 10.1234 16.8539L10.1234 16.8539ZM13.5788 17.1643L10.3137 13.8992C10.3137 13.8992 12.4727 15.4267 13.5788 17.1643Z" fill="white"/>
<path d="M20.5536 17.7466C20.6649 17.6352 20.756 17.5112 20.8295 17.3807L20.8318 17.3784C20.8318 17.3784 20.8333 17.3749 20.8356 17.37C20.8724 17.3037 20.9049 17.2349 20.9321 17.1648C21.2142 16.5532 21.9846 14.7884 21.8105 14.1033C21.125 13.9299 19.3605 14.6996 18.7489 14.9817C18.6785 15.0092 18.6108 15.0414 18.5438 15.0781C18.5384 15.0808 18.5354 15.0819 18.5354 15.0819L18.5331 15.0842C18.4018 15.1577 18.2785 15.2488 18.1672 15.3602C17.5081 16.0193 17.5081 17.0875 18.1672 17.7465C18.8262 18.4052 19.8949 18.4052 20.5535 17.7465L20.5536 17.7466ZM20.6975 15.2167L18.3176 17.5966C19.1236 16.3293 20.6975 15.2167 20.6975 15.2167Z" fill="white"/>
</svg>
