<svg width="47" height="42" viewBox="0 0 47 42" fill="none" xmlns="http://www.w3.org/2000/svg">
<path d="M44.8008 20.1507C43.7234 21.7014 42.26 23.0064 40.9464 24.3464C38.7282 26.5934 36.5157 28.8464 34.3033 31.0934C31.9929 33.44 29.6826 35.7864 27.3722 38.133C26.3063 39.2155 25.2461 40.2923 24.1803 41.3748C23.8519 41.7084 23.2872 41.7084 22.9588 41.3748C22.9242 41.3397 22.8954 41.3105 22.8609 41.2754C22.1407 40.5439 21.4147 39.8065 20.6946 39.0752L16.5866 34.9029C14.9561 33.2469 13.3314 31.5968 11.7008 29.9407L7.20687 25.3764C6.73442 24.8966 6.26197 24.4167 5.78954 23.9369H12.8647C13.2507 23.9369 13.6828 23.7204 13.8614 23.3576C14.3915 22.2633 14.9215 21.1632 15.4516 20.069C16.12 18.6938 16.7884 17.3128 17.4509 15.9377C17.6583 16.4819 17.8715 17.0261 18.0789 17.5703C18.9316 19.7998 19.7901 22.0352 20.6428 24.2646C20.8387 24.7796 21.0346 25.2945 21.2363 25.8095C21.4091 26.2543 21.7029 26.582 22.1927 26.6463C22.6133 26.7048 23.1491 26.5059 23.3392 26.0846C24.2611 24.0716 25.1829 22.0645 26.099 20.0514C26.5023 20.9292 26.9056 21.8011 27.3147 22.6789C27.4184 22.9013 27.5221 23.1295 27.6258 23.3518C27.7929 23.7146 28.2423 23.9312 28.6225 23.9312H32.2811C32.8861 23.9312 33.4623 23.3928 33.4335 22.7608C33.4047 22.1288 32.9265 21.5904 32.2811 21.5904H29.3485C28.6975 20.186 28.0521 18.7816 27.4011 17.383C27.2974 17.1607 27.1937 16.9325 27.09 16.7101C26.7386 15.9494 25.4538 15.9435 25.1023 16.7101C24.215 18.647 23.3277 20.5898 22.4405 22.5266C22.2388 22.0058 22.0429 21.485 21.8413 20.9642C20.9885 18.7347 20.1301 16.4993 19.2774 14.2699C19.0815 13.7549 18.8798 13.24 18.6839 12.725C18.5111 12.2803 18.2172 11.9526 17.7275 11.8882C17.3012 11.8297 16.7826 12.0286 16.5809 12.4441C16.0509 13.5384 15.5209 14.6385 14.9907 15.7327C14.1438 17.4765 13.3027 19.2261 12.4557 20.97C12.3578 21.1748 12.2541 21.3854 12.1561 21.5902H3.53111H3.51959C2.60927 20.5779 1.81413 19.4836 1.24953 18.208C-0.139028 15.0716 -0.271563 11.42 1.01907 8.225C2.45947 4.64373 5.46121 1.88179 9.1428 0.840117C12.9742 -0.242426 17.1283 0.635304 20.2397 3.13404C21.029 3.76601 21.7205 4.52678 22.4349 5.24648C22.8151 5.63269 23.1954 6.01891 23.5698 6.39922L25.2004 4.74314C26.0934 3.83612 26.9979 2.96422 28.0754 2.27962C29.6598 1.26728 31.4575 0.670412 33.3068 0.453946C37.0057 0.0209181 40.7738 1.39022 43.4068 4.04687C43.8792 4.53257 44.3113 5.05921 44.7089 5.60932C47.7337 9.84598 47.7624 15.8849 44.801 20.151L44.8008 20.1507Z" fill="white"/>
</svg>
