<svg width="44" height="44" viewBox="0 0 44 44" fill="none" xmlns="http://www.w3.org/2000/svg">
<path d="M1.60267 43.5993H42.4166C42.6926 43.5993 42.9599 43.4615 43.1146 43.2287C43.2786 43.0046 43.3217 42.7116 43.2267 42.4444C42.813 41.2633 41.9336 40.367 41.1667 39.5738L40.865 39.2634C38.5033 36.7984 36.6155 33.6349 34.7883 30.566C34.6994 30.4174 34.6091 30.2678 34.5202 30.1191C34.4474 30.6332 34.4112 31.319 34.3842 31.8425C34.2468 34.4864 34.0393 38.4821 30.2825 38.4821C28.1998 38.4821 26.7457 36.4133 26.7457 33.4513V33.348C26.747 32.8008 26.7496 31.7819 26.3398 31.3717C26.2831 31.315 26.1114 31.1428 25.6283 31.1428C24.9817 31.1428 24.8352 32.5109 24.6992 34.4436C24.6216 35.5488 24.541 36.6915 24.2746 37.7139C23.8783 39.232 22.6249 40.1728 21.0387 40.1728C20.9402 40.1728 20.8413 40.1693 20.7405 40.1619C19.1336 40.0459 17.3922 38.8905 17.172 36.9073C17.0717 36.0074 17.3198 35.0121 17.5591 34.0495C17.7854 33.1396 18.0675 32.0065 17.7841 31.6499C17.6468 31.4768 17.2435 31.3848 16.6741 31.3922C15.0283 31.4179 14.8879 32.1861 14.7227 34.4031C14.6355 35.5703 14.537 36.8926 13.9501 38.068C13.2194 39.5316 11.9185 40.2387 10.4762 39.968C8.97127 39.6833 7.64935 38.3578 7.52903 37.0133C7.40783 35.6565 7.48064 34.1724 7.61274 32.8679C6.20019 34.4584 4.98553 36.2071 3.99888 38.0832L3.89556 38.2728C3.57685 38.8932 3.27515 39.4796 2.82653 39.8331C2.67133 39.9622 2.49911 40.0572 2.33519 40.1606C2.11109 40.2983 1.86127 40.4448 1.61974 40.6432C1.0595 41.1001 0.568147 42.0566 0.766525 42.9273C0.85285 43.3145 1.20643 43.5992 1.60274 43.5992L1.60267 43.5993Z" fill="white"/>
<path d="M30.2824 36.7565C32.0852 36.7565 32.4863 35.143 32.662 31.7519C32.7378 30.2936 32.8124 28.9973 33.4193 28.3002C32.09 26.1391 30.6787 24.0114 29.0303 22.1778C27.9957 20.3676 24.548 19.4023 21.2642 19.4023C17.782 19.4023 14.1185 20.4796 13.3341 22.4882C13.0581 23.1347 12.7564 23.9535 12.4634 24.7552C12.1791 25.5395 11.8774 26.35 11.6185 26.9534C11.0927 28.1514 10.5499 29.384 9.79129 30.4186C9.7538 30.4683 9.70976 30.5141 9.67096 30.5633C9.43118 31.9459 9.04839 34.6406 9.24632 36.8584C9.2934 37.3855 9.98094 38.118 10.7967 38.2728C11.4755 38.4001 12.0196 38.0731 12.4077 37.2962C12.8432 36.4242 12.9243 35.3308 13.0032 34.2735C13.1467 32.3512 13.3429 29.7188 16.6468 29.6665C17.8004 29.6495 18.6327 29.9447 19.1336 30.5756C19.9454 31.5975 19.5827 33.055 19.2321 34.4645C19.0294 35.2794 18.8193 36.1225 18.8847 36.7155C19.0011 37.7627 19.9689 38.3762 20.8649 38.4411C21.2856 38.4708 22.3075 38.4202 22.6058 37.2775C22.832 36.4099 22.907 35.3483 22.979 34.3211C23.1407 32.0226 23.3243 29.4171 25.6275 29.4171C26.4227 29.4171 27.0728 29.6648 27.5594 30.1526C28.4745 31.0695 28.471 32.4974 28.4688 33.3505V33.4504C28.4697 35.0927 29.0923 36.7564 30.2825 36.7564L30.2824 36.7565ZM21.2641 25.4704C17.4371 25.4704 14.9027 24.1603 14.9027 23.2984C14.9027 23.2552 14.9115 23.2037 14.9285 23.1606V23.1519C14.9372 23.1431 14.9372 23.1261 14.9372 23.1174C15.2476 22.2642 17.6957 21.1263 21.2642 21.1263C25.0825 21.1263 27.6169 22.4364 27.6169 23.2983C27.6169 24.1603 25.0825 25.4704 21.2642 25.4704L21.2641 25.4704Z" fill="white"/>
<path d="M12.4818 16.9121H13.2749C14.5331 16.9121 15.6624 17.4636 16.421 18.3429C17.9897 17.8773 19.7222 17.6794 21.2651 17.6794C22.7737 17.6794 24.5149 17.8777 26.0923 18.3517C26.8509 17.464 27.9801 16.9121 29.2384 16.9121C30.695 16.9121 32.1002 16.395 33.212 15.4642C34.3412 14.5076 35.0392 13.18 35.1862 11.7229C35.3414 10.1024 34.7981 8.48187 33.7121 7.28384C32.6348 6.10277 31.1002 5.41346 29.497 5.40475C28.9193 2.59483 26.4456 0.5 23.5062 0.5C21.6184 0.5 19.8945 1.35321 18.7309 2.8185C18.0242 2.4392 17.2399 2.24082 16.4381 2.24082C13.766 2.24082 11.5764 4.35273 11.4474 6.99869C10.3701 7.18834 9.36995 7.73114 8.62003 8.55868C7.67177 9.59326 7.20659 10.9979 7.33561 12.4118C7.57715 14.9379 9.83547 16.912 12.4819 16.912L12.4818 16.9121Z" fill="white"/>
</svg>
