<svg width="41" height="46" viewBox="0 0 41 46" fill="none" xmlns="http://www.w3.org/2000/svg">
<path d="M14.5774 0.500122C15.8933 0.500122 16.9602 1.53314 16.9602 2.80764C16.9602 4.08214 15.8932 5.11515 14.5774 5.11515C13.2616 5.11515 12.1945 4.08214 12.1945 2.80764C12.1945 1.53314 13.2616 0.500122 14.5774 0.500122ZM22.3219 2.23102C23.309 2.23102 24.1092 3.0057 24.1092 3.96191C24.1092 4.91769 23.3089 5.6928 22.3219 5.6928C21.3348 5.6928 20.5345 4.91772 20.5345 3.96191C20.5345 3.0061 21.3348 2.23102 22.3219 2.23102ZM4.44972 2.23102C5.43682 2.23102 6.23704 3.0057 6.23704 3.96191C6.23704 4.91769 5.43678 5.6928 4.44972 5.6928C3.46265 5.6928 2.6624 4.91772 2.6624 3.96191C2.6624 3.0061 3.46265 2.23102 4.44972 2.23102ZM37.2142 3.38477C38.2014 3.38477 39.0016 4.15946 39.0016 5.11567C39.0016 6.07144 38.2013 6.84656 37.2142 6.84656C36.2271 6.84656 35.4269 6.07148 35.4269 5.11567C35.4269 4.15986 36.2272 3.38477 37.2142 3.38477ZM29.4698 4.53853C30.4569 4.53853 31.2571 5.31321 31.2571 6.26942C31.2571 7.2252 30.4568 8.00032 29.4698 8.00032C28.4827 8.00032 27.6824 7.22523 27.6824 6.26942C27.6824 5.31365 28.4827 4.53853 29.4698 4.53853ZM9.81104 6.84604C11.1269 6.84604 12.1939 7.87906 12.1939 9.15356C12.1939 10.4281 11.1268 11.4611 9.81104 11.4611C8.49524 11.4611 7.42819 10.4281 7.42819 9.15356C7.42819 7.87906 8.49524 6.84604 9.81104 6.84604ZM23.5124 9.15356C24.4995 9.15356 25.2997 9.92824 25.2997 10.8845C25.2997 11.8402 24.4994 12.6153 23.5124 12.6153C22.5253 12.6153 21.7251 11.8403 21.7251 10.8845C21.7251 9.92867 22.5253 9.15356 23.5124 9.15356ZM39.1132 9.73065C39.737 9.75882 40.2781 10.3343 40.2489 10.9388C40.2197 11.5429 39.6255 12.0672 39.0017 12.0387H37.2144V15.5005H30.0657V12.0387H28.2784C27.6488 12.0475 27.0683 11.4946 27.0683 10.8849C27.0683 10.2752 27.6488 9.72231 28.2784 9.73117H39.1129L39.1132 9.73065ZM20.05 12.0382C20.6738 12.0663 21.2149 12.6418 21.1857 13.2463C21.1565 13.8504 20.5623 14.3747 19.9385 14.3462H18.1512V22.1707C21.0243 23.3173 23.3563 25.4848 24.6855 28.1923H2.08541C3.41463 25.4848 5.74709 23.3173 8.61978 22.1707V21.2693H12.1941V18.9617H8.61978V17.808H12.1941V15.5005H8.61978V14.3467H6.83245C6.20282 14.3556 5.62234 13.8026 5.62234 13.193C5.62234 12.5833 6.20286 12.0303 6.83245 12.0392H20.0501L20.05 12.0382ZM37.2148 17.8075V20.115H33.6405V22.4225H37.2148V23.5763H33.6405V25.8838H37.2148V27.0375H33.6405V29.345H37.2148V30.4988H33.6405V32.8063H37.2148V33.9601H33.6405V36.2676H37.2148V42.614C37.2148 43.5573 36.0233 45.4987 33.6405 45.4987C31.2576 45.4987 30.0661 43.5573 30.0661 42.614V17.806H37.2148V17.8075ZM25.5419 30.4999C25.7749 31.4251 25.8956 32.3902 25.8956 33.3846C25.8956 40.0758 20.2947 45.5001 13.3853 45.5001C6.47602 45.5001 0.875 40.0757 0.875 33.3846C0.875 32.3902 0.995681 31.4251 1.22872 30.4999H25.5419Z" fill="white"/>
</svg>
