<svg width="46" height="46" viewBox="0 0 46 46" fill="none" xmlns="http://www.w3.org/2000/svg">
<path d="M45.2013 8.9207L37.0714 0.801491C36.6698 0.399829 36.0239 0.399829 35.6223 0.801491C35.2206 1.20315 35.2206 1.84904 35.6223 2.24503L36.8488 3.47158L30.1083 10.2125L25.8099 5.91945C25.4083 5.51779 24.7624 5.51779 24.3608 5.91945C23.9591 6.32111 23.9591 6.967 24.3608 7.36299L26.7106 9.70745L6.94479 29.4412C6.75475 29.6312 6.64647 29.8917 6.64647 30.1631C6.64647 32.3338 7.43353 34.304 8.69263 35.8781L0.801248 43.7584C0.399584 44.1601 0.399584 44.8059 0.801248 45.2019C1.00189 45.4026 1.26273 45.5002 1.52319 45.5002C1.78364 45.5002 2.04978 45.4026 2.24512 45.2019L10.1365 37.3216C11.7159 38.5807 13.686 39.3678 15.8567 39.3678C16.1282 39.3678 16.3886 39.2591 16.5787 39.0695L36.3386 19.3357L38.6884 21.6802C38.8891 21.8808 39.1499 21.9785 39.4104 21.9785C39.6708 21.9785 39.937 21.8808 40.1323 21.6802C40.534 21.2785 40.534 20.6326 40.1323 20.2366L35.6712 15.7808L42.4174 9.04563L43.7416 10.3699C43.9422 10.5705 44.2031 10.6682 44.4635 10.6682C44.724 10.6682 44.9901 10.5705 45.1855 10.3699C45.6023 9.96821 45.6023 9.32232 45.2006 8.92071L45.2013 8.9207ZM13.4956 31.9098C13.295 32.1104 13.0342 32.2081 12.7737 32.2081C12.5133 32.2081 12.2528 32.1104 12.0518 31.9098L10.2172 30.0752C9.81551 29.6735 9.81551 29.0277 10.2172 28.6317C10.6188 28.23 11.2647 28.23 11.6607 28.6317L13.4953 30.4663C13.8974 30.8626 13.8974 31.5085 13.4957 31.9098H13.4956ZM16.5677 26.7976C16.3671 26.9982 16.1063 27.0959 15.8458 27.0959C15.5854 27.0959 15.3249 26.9982 15.1239 26.7976L14.3152 25.9889C13.9136 25.5873 13.9136 24.9414 14.3152 24.5454C14.7169 24.1437 15.3628 24.1437 15.7588 24.5454L16.5674 25.354C16.9638 25.75 16.9638 26.3958 16.5678 26.7976H16.5677ZM21.68 23.7258C21.4794 23.9265 21.2185 24.0242 20.9581 24.0242C20.6976 24.0242 20.4372 23.9265 20.2361 23.7258L18.4015 21.8913C17.9999 21.4896 17.9999 20.8437 18.4015 20.4477C18.8032 20.0461 19.4491 20.0461 19.8451 20.4477L21.6797 22.2823C22.0817 22.6783 22.0817 23.3295 21.6801 23.7258H21.68ZM24.7465 18.6132C24.5458 18.8139 24.285 18.9115 24.0246 18.9115C23.7641 18.9115 23.5036 18.8139 23.3026 18.6132L22.494 17.8046C22.0923 17.4029 22.0923 16.757 22.494 16.361C22.8956 15.9594 23.5415 15.9594 23.9375 16.361L24.7462 17.1697C25.1482 17.5657 25.1482 18.2115 24.7465 18.6132H24.7465Z" fill="white"/>
</svg>
