<svg width="45" height="45" viewBox="0 0 45 45" fill="none" xmlns="http://www.w3.org/2000/svg">
<path d="M19.1033 3.78583H10.8883V1.31944C10.8898 0.867289 11.256 0.501461 11.7078 0.5H18.2839C18.736 0.501463 19.1022 0.867289 19.1033 1.31944V3.78583ZM17.4644 2.13889H12.5272V3.78583H17.4644V2.13889ZM41.0888 18.2244L38.0649 44.0205H38.0652C38.0188 44.4357 37.6676 44.7499 37.2498 44.7499H7.74982C7.33205 44.7499 6.98086 44.4357 6.9344 44.0205L4.0744 18.2206H4.07476C4.04806 17.9894 4.12122 17.7578 4.27633 17.5841C4.43143 17.4103 4.65312 17.3108 4.88579 17.3112H40.2736C40.5074 17.3104 40.7305 17.4099 40.8864 17.5844C41.0422 17.7593 41.1161 17.9923 41.0887 18.2246L41.0888 18.2244ZM33.6443 23.0756C33.6443 22.623 33.2774 22.2561 32.8248 22.2561C32.3723 22.2561 32.0054 22.623 32.0054 23.0756V26.3409C32.0054 29.7372 30.1934 32.8752 27.2526 34.573C24.3118 36.2711 20.6879 36.2711 17.747 34.573C14.8062 32.8752 12.9943 29.7371 12.9943 26.3409V23.0756C12.9943 22.623 12.6273 22.2561 12.1748 22.2561C11.7223 22.2561 11.3554 22.623 11.3554 23.0756V26.3409C11.3554 30.3225 13.4794 34.0016 16.9276 35.9925C20.3758 37.9834 24.6238 37.9834 28.0721 35.9925C31.5203 34.0017 33.6443 30.3226 33.6443 26.3409V23.0756ZM28.4983 8.39486V8.39083C28.5334 6.8573 28.1141 5.34793 27.2936 4.0518C27.1389 3.82097 26.9618 3.6055 26.765 3.40868C26.4815 3.11639 26.1486 2.87641 25.7817 2.69972L25.6752 2.6507C25.6002 2.61778 25.5238 2.58887 25.4459 2.56473C25.3599 2.5362 25.2739 2.51132 25.1876 2.49083L25.0647 2.46632C25.0555 2.46267 25.0456 2.4612 25.0361 2.4623C24.9809 2.44986 24.9246 2.44181 24.8682 2.43779C24.7702 2.42608 24.6718 2.4206 24.573 2.42133C22.5119 2.42133 20.873 4.71175 20.6642 7.74369C20.5658 7.76015 20.4718 7.77661 20.3774 7.80113V7.80076C20.2088 7.83698 20.043 7.88636 19.8817 7.94855C18.9401 8.30157 18.181 9.02076 17.7775 9.94191C17.374 10.8634 17.3601 11.9086 17.7391 12.8403C17.0941 13.0152 16.5158 13.3777 16.0775 13.8818C15.6392 14.3859 15.3601 15.0089 15.2763 15.6717H25.3551C26.5513 13.1417 27.8807 10.6775 29.3377 8.28831C29.0546 8.29124 28.7725 8.32709 28.4978 8.39477L28.4983 8.39486ZM12.1787 15.1633C10.2734 10.8652 8.23728 8.77161 6.12283 8.89851L5.27046 2.58073L5.27082 2.5811C5.24558 2.36271 5.13401 2.1637 4.96061 2.02871C4.7872 1.89372 4.56662 1.83409 4.34895 1.86299C4.13129 1.89226 3.93411 2.00786 3.80242 2.18346C3.67072 2.35942 3.61512 2.58074 3.64841 2.79804L4.44736 8.72258L1.72269 6.43216V6.43253C1.55624 6.29205 1.34113 6.22364 1.12457 6.2423C0.907999 6.26059 0.70753 6.36449 0.567053 6.53057C0.275125 6.877 0.319393 7.39428 0.665461 7.68622L3.61144 10.161C2.69761 11.1729 2.25134 12.8612 3.554 15.6718H12.228C12.2668 15.5014 12.2496 15.3232 12.1786 15.1637L12.1787 15.1633ZM19.107 6.49365V6.49402C19.1037 6.46951 19.1022 6.44463 19.1029 6.42012V5.43276H10.888V6.42012C10.8909 6.71863 10.7347 6.99629 10.4783 7.14958C10.246 7.29188 10.0228 7.44918 9.81062 7.62075C9.59113 7.79416 9.38553 7.98475 9.19604 8.18997C10.8144 9.29224 12.2975 11.3858 13.6744 14.4957H13.6741C13.7158 14.5904 13.7512 14.6877 13.7805 14.7865C14.0991 13.6133 14.833 12.5955 15.8456 11.9228C15.8332 11.763 15.8251 11.5991 15.8251 11.4352C15.8291 10.3809 16.1419 9.35073 16.7254 8.47238C17.3085 7.59403 18.1367 6.90625 19.107 6.494L19.107 6.49365ZM44.3178 3.05198V3.05235C43.9962 2.06686 43.262 1.26971 42.3061 0.868414C40.6467 0.155422 38.9424 0.520145 37.2585 1.62238L40.2126 7.48941C40.4149 7.89474 40.2517 8.38714 39.8478 8.59168C39.733 8.64766 39.6068 8.67692 39.4791 8.67765C39.1692 8.67729 38.8857 8.50315 38.7456 8.22696L35.9309 2.63422C35.2567 3.23417 34.6256 3.88025 34.0418 4.5683L37.2417 10.923H37.2421C37.3397 11.1165 37.3569 11.3407 37.2892 11.5467C37.2216 11.7527 37.0749 11.9231 36.8813 12.0208C36.7676 12.0801 36.641 12.1108 36.5126 12.1112C36.2024 12.1119 35.9185 11.9374 35.7791 11.6605L32.9151 5.97335C32.3495 6.71889 31.7924 7.51784 31.2476 8.35779V8.35816C31.2597 8.37133 31.2692 8.38669 31.2762 8.40315L34.2796 14.3565V14.3562C34.4819 14.7615 34.3191 15.2539 33.9148 15.4584C33.8 15.5144 33.6741 15.544 33.5461 15.5444C33.2362 15.544 32.9531 15.3699 32.8126 15.0937L30.2394 9.98459C29.1536 11.7998 28.1253 13.7376 27.1789 15.6717H41.3304C44.178 9.73473 45.1818 5.49376 44.3174 3.05228L44.3178 3.05198Z" fill="white"/>
</svg>
